<svg width="204" height="203" viewBox="0 0 204 203" fill="none" xmlns="http://www.w3.org/2000/svg">
<path d="M167.92 155.55L195 191.67V196.16C195 197.974 194.279 199.714 192.997 200.997C191.714 202.279 189.974 203 188.16 203H114L85.8201 166.89L82.7401 162.95V161.87C82.7401 161.109 82.4377 160.379 81.8995 159.841C81.3613 159.302 80.6313 159 79.8701 159C79.1089 159 78.3789 159.302 77.8407 159.841C77.3025 160.379 77.0001 161.109 77.0001 161.87V195.06C77.0014 196.103 76.7969 197.136 76.3984 198.1C75.9998 199.064 75.415 199.94 74.6775 200.677C73.9399 201.415 73.0641 202 72.1002 202.398C71.1362 202.797 70.1032 203.001 69.0601 203H6.84009C5.02601 203 3.28623 202.279 2.00348 200.997C0.720735 199.714 9.61617e-05 197.974 9.61617e-05 196.16V111.05C-0.00648614 109.339 0.324914 107.643 0.975278 106.06C1.62564 104.477 2.58217 103.038 3.78998 101.825C4.9978 100.613 6.43314 99.6508 8.01364 98.9943C9.59414 98.3379 11.2887 98 13.0001 98H56.9001C59.3671 110.819 66.4785 122.277 76.8712 130.177C87.2638 138.077 100.207 141.864 113.219 140.811C126.23 139.759 138.396 133.941 147.384 124.473C156.372 115.005 161.549 102.553 161.923 89.5042C162.298 76.4551 157.843 63.7269 149.413 53.7592C140.983 43.7914 129.171 37.2856 116.241 35.4885C103.311 33.6915 90.1721 36.7298 79.3435 44.021C68.5149 51.3122 60.7582 62.3433 57.5601 75H13.0501C11.3387 75 9.64413 74.6621 8.06363 74.0057C6.48313 73.3492 5.0478 72.3872 3.83999 71.1747C2.63217 69.9623 1.67564 68.5233 1.02527 66.9402C0.37491 65.3572 0.0435169 63.6614 0.0500992 61.95V6.84C0.0500992 5.02592 0.770738 3.28614 2.05349 2.00339C3.33624 0.720639 5.07601 0 6.8901 0H125.89C143.205 1.86176 159.555 8.90778 172.799 20.2158C186.043 31.5238 195.565 46.567 200.117 63.3763C204.67 80.1855 204.042 97.9777 198.315 114.424C192.588 130.87 182.029 145.204 168.02 155.55H167.92Z" fill="url(#paint0_linear_12_69)"/>
<defs>
<linearGradient id="paint0_linear_12_69" x1="17.0401" y1="175.21" x2="168.14" y2="36.79" gradientUnits="userSpaceOnUse">
<stop stop-color="#00CCD1"/>
<stop offset="0.24" stop-color="#00BCD2"/>
<stop offset="0.7" stop-color="#0093D4"/>
<stop offset="1" stop-color="#0074D5"/>
</linearGradient>
</defs>
</svg>
